<?xml version="1.0" standalone="no"?><!DOCTYPE svg PUBLIC "-//W3C//DTD SVG 1.1//EN" "http://www.w3.org/Graphics/SVG/1.1/DTD/svg11.dtd"><svg t="1754554855135" class="icon" viewBox="0 0 1024 1024" version="1.1" xmlns="http://www.w3.org/2000/svg" p-id="50201" xmlns:xlink="http://www.w3.org/1999/xlink" width="200" height="200"><path d="M519.3216 744.2432a109.056 109.056 0 0 1-52.3264-13.312L116.2752 537.6a38.0928 38.0928 0 0 1-15.0016-52.736 40.4992 40.4992 0 0 1 54.3232-14.592l350.72 193.1264a27.136 27.136 0 0 0 26.1632 0l346.0096-192.8704a40.448 40.448 0 0 1 54.3744 14.2848 38.144 38.144 0 0 1-14.6944 52.7872l-346.0096 193.024a108.7488 108.7488 0 0 1-52.8384 13.6192z" fill="#707070" p-id="50202"></path><path d="M519.3216 909.824a108.544 108.544 0 0 1-52.3264-13.3632l-350.72-193.1264a38.144 38.144 0 0 1-15.0016-52.7872 40.4992 40.4992 0 0 1 54.3232-14.592l350.72 193.1776a27.136 27.136 0 0 0 26.1632 0l346.0096-192.9728A40.4992 40.4992 0 0 1 932.864 650.24a38.144 38.144 0 0 1-14.6944 52.8384L572.16 896a108.7488 108.7488 0 0 1-52.8384 13.824z" fill="#707070" p-id="50203"></path><path d="M884.1728 300.5952l-322.1504-187.5456a84.9408 84.9408 0 0 0-86.4768 0.6144L164.3008 300.9536a50.0224 50.0224 0 0 0 0.9216 86.272l311.8592 178.688a84.9408 84.9408 0 0 0 83.3536 0.5632l322.816-178.8928a50.0224 50.0224 0 0 0 0.9216-86.9888z m-432.896-41.4208L307.456 349.3376a25.2928 25.2928 0 0 1-13.568 3.9424 25.6 25.6 0 0 1-13.6192-47.3088l143.7696-90.1632a25.6 25.6 0 1 1 27.2384 43.3664z" fill="#707070" p-id="50204"></path><path d="M811.4688 258.2528l-249.4464-145.2032a84.9408 84.9408 0 0 0-86.4768 0.6144L164.3008 300.9536a50.0224 50.0224 0 0 0 0.9216 86.272l311.8592 178.688a84.9408 84.9408 0 0 0 83.3536 0.5632l158.72-88.064a479.1808 479.1808 0 0 0 92.3136-220.16z m-360.192 0.9216L307.456 349.3376a25.2928 25.2928 0 0 1-13.568 3.9424 25.6 25.6 0 0 1-13.6192-47.3088l143.7696-90.1632a25.6 25.6 0 1 1 27.2384 43.3664z" fill="#707070" p-id="50205"></path><path d="M903.68 465.92a40.3456 40.3456 0 0 0-25.1904 4.7616L532.48 663.5008a27.136 27.136 0 0 1-26.1632 0l-350.72-193.0752a40.4992 40.4992 0 0 0-54.3232 14.592A38.0928 38.0928 0 0 0 116.2752 537.6l350.72 193.1776a109.4144 109.4144 0 0 0 105.1648-0.3072l295.6288-164.864A475.7504 475.7504 0 0 0 903.68 465.92z" fill="#707070" p-id="50206"></path><path d="M155.5968 470.4256a40.4992 40.4992 0 0 0-54.3232 14.592A38.0928 38.0928 0 0 0 116.2752 537.6l237.6192 130.8672q16.5888-0.6144 33.3824-2.3552a484.8128 484.8128 0 0 0 90.4192-18.4832z" fill="#707070" p-id="50207"></path><path d="M238.2848 515.9424l-82.688-45.5168a40.4992 40.4992 0 0 0-54.3232 14.592 37.1712 37.1712 0 0 0-5.12 15.872 477.184 477.184 0 0 0 142.1312 15.0528zM675.84 179.2l-113.8176-66.1504a84.9408 84.9408 0 0 0-86.4768 0.6144L164.3008 300.9536a50.0224 50.0224 0 0 0 0.9216 86.272l190.3104 109.056A480.5632 480.5632 0 0 0 675.84 179.2zM272.1792 341.2992a25.6 25.6 0 0 1 8.0896-35.328l143.7696-90.1632a25.6 25.6 0 1 1 27.2384 43.3664L307.456 349.3376a25.2928 25.2928 0 0 1-13.568 3.9424 25.6 25.6 0 0 1-21.7088-11.9808z" fill="#707070" p-id="50208"></path><path d="M475.5456 113.664L164.3008 300.9536a49.8688 49.8688 0 0 0-22.9888 53.8112q17.7152-0.4608 35.84-2.3552A438.3232 438.3232 0 0 0 268.8 332.8a25.6 25.6 0 0 1 11.4688-26.6752l143.7696-90.3168a25.6 25.6 0 0 1 26.88 0 439.7056 439.7056 0 0 0 76.8-113.7152 84.8384 84.8384 0 0 0-52.1728 11.5712z" fill="#707070" p-id="50209"></path><path d="M506.88 829.44l-0.6656-0.3072-350.72-193.1776a40.4992 40.4992 0 0 0-54.3232 14.592 38.144 38.144 0 0 0 15.0016 52.7872l218.6752 120.4224a478.7712 478.7712 0 0 0 152.5248 8.1408c6.656-0.6656 13.1584-1.536 19.5072-2.4576zM778.24 692.0704l-233.7792 130.3552A477.6448 477.6448 0 0 0 778.24 692.0704z" fill="#707070" p-id="50210"></path></svg>