<?xml version="1.0" standalone="no"?><!DOCTYPE svg PUBLIC "-//W3C//DTD SVG 1.1//EN" "http://www.w3.org/Graphics/SVG/1.1/DTD/svg11.dtd"><svg t="1754554815654" class="icon" viewBox="0 0 1024 1024" version="1.1" xmlns="http://www.w3.org/2000/svg" p-id="47165" xmlns:xlink="http://www.w3.org/1999/xlink" width="200" height="200"><path d="M232.021333 276.906667c-0.554667 57.941333-0.213333 115.925333-0.213333 173.866666 0 52.864 0.426667 105.728-0.128 158.549334-0.64 62.293333-20.010667 116.224-73.002667 153.6a124.928 124.928 0 0 1-88.746666 22.912c-12.842667-1.493333-25.088-5.717333-27.050667-21.248-1.92-15.232 8.832-20.650667 20.864-24.661334 41.386667-13.738667 62.336-43.52 66.474667-85.973333 1.493333-15.232 2.645333-30.592 2.688-45.909333l0.085333-163.626667V280.746667c0-23.552 0.768-24.234667 23.509333-24.32 18.176 0 36.394667 0.810667 54.528-0.170667 15.658667-0.853333 21.162667 5.12 20.992 20.650667z m475.648-2.389334c24.576 63.573333 49.92 126.848 75.008 190.250667l3.328 8.32 6.528 16.213333c7.978667-19.498667 14.506667-34.816 20.565334-50.346666 21.76-55.509333 43.648-111.018667 64.938666-166.741334 4.266667-11.178667 10.325333-16.341333 22.570667-15.914666 20.992 0.682667 42.069333 0.512 63.104 0 12.032-0.256 17.578667 3.925333 17.578667 16.682666-0.256 121.130667-0.298667 242.218667 0 363.306667 0.042667 12.629333-5.12 17.493333-17.066667 17.408-17.664-0.213333-35.285333-0.597333-52.906667 0-14.762667 0.512-19.626667-5.546667-19.456-20.266667 0.597333-67.669333 0.213333-135.338667 0.213334-202.965333 0-5.12 0-10.154667-2.56-16.128-1.834667 3.541333-4.010667 6.954667-5.418667 10.666667-27.306667 70.442667-54.485333 140.970667-81.834667 211.413333-3.413333 8.832-5.589333 18.645333-18.773333 18.602667-13.610667 0-16.853333-9.813333-20.48-19.328-26.282667-68.394667-52.394667-136.874667-78.634667-205.312-1.877333-4.906667-4.096-9.642667-6.144-14.506667l-3.712 0.810667v14.336c0 65.962667 0.085333 131.925333 0 197.845333 0 22.016-1.109333 24.576-20.778666 24.704h-4.522667c-53.077333-0.341333-46.293333 6.826667-46.464-45.824-0.298667-109.184-0.085333-218.325333-0.085333-327.509333 0-23.210667 0.597333-23.722667 24.064-23.765334 18.218667 0 36.437333 0.853333 54.570666-0.213333 14.506667-0.896 21.333333 5.290667 26.368 18.261333z m-342.101333 2.090667c17.749333 65.194667 36.352 130.218667 54.698667 195.285333 1.792 6.357333 3.797333 12.629333 5.717333 18.944l3.968-0.085333c19.712-65.194667 39.253333-130.432 59.306667-195.541333 14.08-45.866667 5.333333-38.229333 52.608-38.613334 36.906667-0.341333 36.949333 0 25.6 34.346667-37.674667 113.792-75.690667 227.498667-112.682667 341.504-5.376 16.554667-13.312 22.186667-30.464 21.504-41.728-1.578667-34.688 5.333333-48.597333-36.138667-37.504-112.085333-74.837333-224.256-112.213334-336.384-7.808-23.552-6.741333-24.917333 18.346667-24.96 18.773333 0 37.589333 1.066667 56.277333-0.341333 16.213333-1.194667 23.338667 5.333333 27.434667 20.48z" fill="#620058" p-id="47166"></path></svg>