<?xml version="1.0" standalone="no"?><!DOCTYPE svg PUBLIC "-//W3C//DTD SVG 1.1//EN" "http://www.w3.org/Graphics/SVG/1.1/DTD/svg11.dtd"><svg t="1754554600882" class="icon" viewBox="0 0 1024 1024" version="1.1" xmlns="http://www.w3.org/2000/svg" p-id="27935" xmlns:xlink="http://www.w3.org/1999/xlink" width="200" height="200"><path d="M259.157333 85.333333c52.906667 0 95.829333 42.496 95.829334 94.890667 0 31.573333-15.616 59.648-39.594667 76.885333v122.112c29.866667 10.069333 56.064 28.074667 76.117333 51.370667l111.786667-64a120.234667 120.234667 0 0 1-5.632-36.266667A122.026667 122.026667 0 0 1 620.373333 208.896a122.026667 122.026667 0 0 1 122.538667 121.429333A122.026667 122.026667 0 0 1 620.373333 451.669333a122.88 122.88 0 0 1-81.237333-30.464l-115.2 65.706667a170.410667 170.410667 0 0 1-1.109333 113.749333l96 52.906667a32.256 32.256 0 0 1 12.714666 44.117333 32.853333 32.853333 0 0 1-44.032 12.8l-0.512-0.256-97.621333-53.930666a174.165333 174.165333 0 0 1-73.898667 48.810666v91.562667c0 3.925333-1.024 7.68-2.730666 11.093333 25.6 16.981333 42.325333 45.909333 42.325333 78.677334 0 52.394667-42.837333 94.890667-95.829333 94.890666-52.906667 0-95.829333-42.496-95.829334-94.890666 0-40.789333 26.026667-75.52 62.464-89.002667V711.082667A172.629333 172.629333 0 0 1 85.333333 542.122667c0-83.626667 60.416-153.429333 140.373334-168.96V269.226667a94.976 94.976 0 0 1-62.293334-88.917334C163.328 127.829333 206.165333 85.333333 259.072 85.333333z m486.997334 564.906667a162.133333 162.133333 0 0 1 89.088 26.282667c8.874667 5.802667 16.469333 12.032 22.954666 18.432l0.426667 0.426666 0.853333 0.853334 0.853334 0.853333 0.768 0.853333 0.768 0.768 0.682666 0.768 0.341334 0.341334 0.682666 0.768 0.256 0.341333 1.194667 1.365333 0.597333 0.597334a69.802667 69.802667 0 0 1 0.512 0.682666l0.426667 0.597334 0.426667 0.512a32.256 32.256 0 0 1-6.4 45.653333 32.938667 32.938667 0 0 1-45.397334-5.973333l-0.085333-0.170667-0.256-0.341333-0.170667-0.085334a37.205333 37.205333 0 0 0-0.426666-0.512l-0.426667-0.512-1.792-1.877333a83.114667 83.114667 0 0 0-12.8-10.24 96.512 96.512 0 0 0-53.418667-15.445333c-33.365333-0.170667-54.613333 12.202667-68.864 33.962666a99.584 99.584 0 0 0-13.738666 32.853334l-0.426667 1.706666-0.085333 1.024v0.170667a32.597333 32.597333 0 0 1-28.842667 27.562667h-0.341333l-0.768 0.170666H632.32l-1.024 0.170667a114.688 114.688 0 0 0-33.792 10.666667c-18.773333 9.557333-28.842667 22.186667-29.781333 41.045333-0.853333 18.346667 6.912 29.525333 23.466666 38.058667l1.024 0.512a97.365333 97.365333 0 0 0 29.013334 8.874666l0.768 0.085334h31.573333a32.768 32.768 0 0 1 2.304-2.901334l0.597333-0.597333 1.450667-1.536 1.706667-1.706667 1.706666-1.792 1.706667-1.706666 1.536-1.536 2.389333-2.389334 3.413334-3.242666 1.706666-1.706667 3.413334-3.413333 1.877333-1.706667 0.938667-0.938667c17.066667-16.213333 35.413333-32.256 54.613333-47.36a463.36 463.36 0 0 1 78.506667-51.285333 197.12 197.12 0 0 1 66.816-21.162667c29.696-3.072 57.429333 7.253333 76.8 28.672 18.602667 20.736 27.648 49.664 26.197333 82.261334a95.061333 95.061333 0 0 1-20.309333 55.893333c-10.24 12.8-23.381333 22.528-38.4 29.610667a147.029333 147.029333 0 0 1-46.421334 12.8l-1.365333 0.170666-1.706667 0.170667-0.853333 0.085333h-1.024l-0.853333 0.170667H620.032l-2.901333-0.085333-2.048-0.256-1.109334-0.085334-1.109333-0.170666-1.28-0.170667a163.84 163.84 0 0 1-48.810667-15.104 112.896 112.896 0 0 1-42.24-34.730667 100.181333 100.181333 0 0 1-18.261333-64.938666c1.194667-23.722667 9.130667-44.544 22.869333-61.781334 11.264-14.250667 25.770667-25.344 42.496-33.792 11.349333-5.802667 23.210667-10.069333 35.072-13.141333l0.853334-0.256v-0.256a162.986667 162.986667 0 0 1 17.749333-37.205333l0.682667-1.109334a137.386667 137.386667 0 0 1 45.824-43.946666c22.186667-12.885333 48.384-19.712 78.336-19.626667z m-486.997334 206.165333a30.208 30.208 0 0 0-30.293333 30.037334c0 16.64 13.568 30.037333 30.293333 30.037333a30.208 30.208 0 0 0 30.378667-30.037333 30.208 30.208 0 0 0-30.378667-30.037334z m625.834667-24.832a134.826667 134.826667 0 0 0-44.202667 14.592 361.813333 361.813333 0 0 0-51.456 32.085334l-4.864 3.584-2.389333 1.792-1.194667 0.938666-2.474666 1.877334-1.194667 0.938666-2.474667 1.877334a607.402667 607.402667 0 0 0-26.88 22.272l-0.597333 0.512h120.32l0.597333-0.085334a84.053333 84.053333 0 0 0 26.197334-7.082666c13.824-6.485333 20.736-15.189333 21.333333-29.781334 0.853333-16.469333-3.072-28.842667-9.642667-36.096a23.381333 23.381333 0 0 0-21.077333-7.424zM259.157333 435.2A107.52 107.52 0 0 0 151.04 542.122667c0 59.221333 48.469333 107.178667 108.202667 107.178666 59.733333 0 108.202667-47.957333 108.202666-107.178666a107.52 107.52 0 0 0-93.866666-106.154667l-2.901334 0.256a61.013333 61.013333 0 0 1-11.434666-1.024zM620.373333 273.92a56.576 56.576 0 0 0-56.917333 56.32c0 31.146667 25.429333 56.32 56.917333 56.32a56.576 56.576 0 0 0 56.832-56.32 56.576 56.576 0 0 0-56.832-56.32zM259.157333 150.186667a30.208 30.208 0 0 0-30.293333 30.037333c0 16.64 13.568 30.037333 30.293333 30.037333a30.208 30.208 0 0 0 30.378667-30.037333 30.208 30.208 0 0 0-30.378667-30.037333z" fill="#FF5500" p-id="27936"></path></svg>