<?xml version="1.0" standalone="no"?><!DOCTYPE svg PUBLIC "-//W3C//DTD SVG 1.1//EN" "http://www.w3.org/Graphics/SVG/1.1/DTD/svg11.dtd"><svg t="1754555776544" class="icon" viewBox="0 0 1024 1024" version="1.1" xmlns="http://www.w3.org/2000/svg" p-id="52746" xmlns:xlink="http://www.w3.org/1999/xlink" width="200" height="200"><path d="M744.618154 792.775244c10.002681-33.96259 24.657771-46.524096 21.168463-190.516172C1013.294807 361.264256 1023.762728 23.2667 1023.762728 1.167755V0.004652c-20.470602 0-353.117887-4.187169-598.765112 238.435991-139.572287-9.304819-153.762136 5.350271-187.492106 13.957229C174.23274 269.611787 19.307501 432.678743 3.024067 489.903381S46.756717 558.293801 70.018765 560.154765s139.572287-8.839578 149.574968 7.443856a59.783463 59.783463 0 0 1 18.842259 49.082921 204.706021 204.706021 0 0 0 40.243343 114.681896h1.163102a198.192648 198.192648 0 0 0 111.192589 46.524095 60.016084 60.016084 0 0 1 46.524096 21.168464c15.818193 10.467922 0 130.267468 1.860963 152.599034s9.304819 83.975993 66.064216 69.786144 221.454696-166.556263 239.599094-229.131172z m-158.647167-363.585808a121.66051 121.66051 0 0 1 3.489307-169.580329 116.310239 116.310239 0 0 1 166.556263 3.024066 121.42789 121.42789 0 0 1-3.489307 169.347709 116.310239 116.310239 0 0 1-166.556263-2.791446zM304.034967 827.203075a134.687257 134.687257 0 0 1-81.184547-43.267409 141.665872 141.665872 0 0 1-39.080241-84.673854c-4.88503-33.264728-23.262048-48.61768-43.96527-46.524096s-90.489366 76.532138-95.374396 103.516113 33.497349 14.65509 52.804848 33.264728-3.954548 72.81021-19.3075 102.120391C70.018765 907.22452 65.598976 922.577471 72.112349 930.486568s23.262048 2.791446 39.080241-4.187169c29.31018-13.957229 83.045511-35.590933 100.492047-15.818193s4.187169 59.085602 30.473282 54.898433 101.655149-71.879728 105.144457-93.048191-11.165783-39.778102-43.267409-46.524096z" fill="#808080" p-id="52747"></path></svg>