<?xml version="1.0" standalone="no"?><!DOCTYPE svg PUBLIC "-//W3C//DTD SVG 1.1//EN" "http://www.w3.org/Graphics/SVG/1.1/DTD/svg11.dtd"><svg t="1754554842155" class="icon" viewBox="0 0 1024 1024" version="1.1" xmlns="http://www.w3.org/2000/svg" p-id="49124" xmlns:xlink="http://www.w3.org/1999/xlink" width="200" height="200"><path d="M548.75022222 778.80888889l-336.32711111-3.18577778 0-85.78844444-207.98577777 120.14933333 207.98577777 120.14933333-1e-8-104.78933333L519.85066667 825.34399999l52.79288888 3.18577779 216.17777778-230.74133333-35.04355555-35.15733334-205.02755556 216.17777778z m0-294.912l-336.32711111-3.18577778 0-85.78844444-207.98577778 120.14933333 207.98577777 120.14933333 1e-8-104.78933333L548.75022222 530.432l0-46.53511111z m-336.32711111-254.5208889l286.60622223 3.18577779 297.984 297.984L1019.56266667 530.54577778l0-49.60711111-198.65599999 0-297.87022222-297.984-310.61333335-3.18577778 0-85.78844444-207.98577777 120.14933333 207.98577777 120.03555555 0-104.78933334z" p-id="49125" fill="#1296db"></path></svg>